<?xml version="1.0" standalone="no"?>
<!DOCTYPE svg PUBLIC "-//W3C//DTD SVG 20010904//EN"
 "http://www.w3.org/TR/2001/REC-SVG-20010904/DTD/svg10.dtd">
<svg version="1.0" xmlns="http://www.w3.org/2000/svg"
 width="288.000000pt" height="288.000000pt" viewBox="0 0 288.000000 288.000000"
 preserveAspectRatio="xMidYMid meet">
<metadata>
Created by potrace 1.14, written by Peter Selinger 2001-2017
</metadata>
<g transform="translate(0.000000,288.000000) scale(0.100000,-0.100000)"
fill="#000000" stroke="none">
<path d="M165 2851 c-72 -34 -105 -68 -139 -141 l-26 -55 0 -1215 0 -1215 26
-55 c34 -73 67 -107 139 -141 l60 -29 1215 0 1215 0 50 24 c73 34 110 69 144
138 l31 61 0 1216 0 1216 -24 50 c-34 74 -73 114 -141 146 l-60 29 -1215 0
-1215 0 -60 -29z m2338 -302 c12 -7 25 -17 29 -23 4 -6 8 -495 8 -1086 0 -591
-4 -1080 -8 -1086 -22 -33 -43 -34 -1107 -34 -1064 0 -1085 1 -1107 34 -10 14
-10 2158 0 2172 4 6 16 16 27 22 29 16 2127 17 2158 1z"/>
<path d="M430 1440 l0 -990 995 0 995 0 0 990 0 990 -995 0 -995 0 0 -990z
m1617 376 c129 -59 189 -162 181 -305 -6 -94 -29 -142 -98 -205 -76 -67 -145
-86 -316 -86 l-133 0 -3 -122 -3 -123 -100 0 -100 0 -3 359 -2 359 -77 -7
c-42 -3 -127 -6 -189 -6 l-114 0 -2 -352 -3 -353 -102 -3 -103 -3 0 356 0 355
-140 0 -140 0 0 85 0 86 693 -3 692 -3 62 -29z"/>
<path d="M1680 1529 l0 -152 113 6 c131 6 178 22 207 69 26 43 27 122 1 164
-31 51 -73 64 -205 64 l-116 0 0 -151z"/>
</g>
</svg>
