<?xml version="1.0" encoding="UTF-8" standalone="no"?>
<svg
   version="1.0"
   width="512.000000pt"
   height="512.000000pt"
   viewBox="0 0 512.000000 512.000000"
   preserveAspectRatio="xMidYMid meet"
   id="svg8"
   sodipodi:docname="location_icon.svg"
   inkscape:version="1.2.2 (732a01da63, 2022-12-09)"
   xmlns:inkscape="http://www.inkscape.org/namespaces/inkscape"
   xmlns:sodipodi="http://sodipodi.sourceforge.net/DTD/sodipodi-0.dtd"
   xmlns="http://www.w3.org/2000/svg"
   xmlns:svg="http://www.w3.org/2000/svg">
  <defs
     id="defs12" />
  <sodipodi:namedview
     id="namedview10"
     pagecolor="#ffffff"
     bordercolor="#000000"
     borderopacity="0.25"
     inkscape:showpageshadow="2"
     inkscape:pageopacity="0.0"
     inkscape:pagecheckerboard="0"
     inkscape:deskcolor="#d1d1d1"
     inkscape:document-units="pt"
     showgrid="false"
     inkscape:zoom="1.1777344"
     inkscape:cx="341.75788"
     inkscape:cy="341.75788"
     inkscape:window-width="1920"
     inkscape:window-height="991"
     inkscape:window-x="-9"
     inkscape:window-y="-9"
     inkscape:window-maximized="1"
     inkscape:current-layer="g6" />
  <g
     transform="translate(0.000000,512.000000) scale(0.100000,-0.100000)"
     fill="#000000"
     stroke="none"
     id="g6">
    <path
       d="M 2360,5109 C 2158,5086 1964,5029 1775,4936 1399,4751 1119,4470 940,4097 614,3421 730,2694 1323,1700 1492,1417 1649,1183 2045,625 2177,438 2324,229 2372,160 2462,29 2496,0 2560,0 c 64,0 98,29 188,160 48,69 195,278 327,465 388,546 559,801 724,1079 533,897 674,1550 470,2181 -38,117 -141,326 -218,440 -368,550 -1033,858 -1691,784 z m 495,-319 C 3536,4647 4025,4076 4057,3385 4073,3052 3973,2684 3740,2220 3557,1855 3355,1538 2820,782 2680,583 2563,421 2560,421 c -3,0 -31,37 -62,82 -31,45 -154,219 -273,387 -236,332 -471,679 -582,860 -415,676 -601,1199 -580,1635 26,547 334,1023 827,1274 150,77 311,126 490,151 106,15 361,4 475,-20 z"
       id="path2"
       inkscape:highlight-color="#ffffff"
       style="fill:#ffffff" />
    <path
       d="m 2380,4201 c -339,-74 -601,-323 -691,-656 -18,-65 -22,-107 -22,-225 0,-118 4,-160 22,-225 88,-324 340,-570 668,-652 103,-26 323,-23 428,6 317,85 560,329 646,646 18,65 22,107 22,225 0,118 -4,160 -22,225 -86,318 -332,564 -646,646 -116,30 -294,35 -405,10 z m 324,-301 c 113,-29 190,-73 276,-160 87,-86 131,-163 160,-276 36,-141 17,-295 -52,-427 -44,-82 -165,-203 -245,-245 -133,-70 -286,-88 -427,-52 -111,28 -189,73 -276,160 -87,86 -131,162 -160,276 -36,141 -18,294 52,427 42,80 163,201 245,245 132,70 286,88 427,52 z"
       id="path4"
       inkscape:label="path4"
       inkscape:highlight-color="#ffffff"
       style="fill:#ffffff" />
  </g>
</svg>
