<!DOCTYPE svg PUBLIC "-//W3C//DTD SVG 1.1//EN" "http://www.w3.org/Graphics/SVG/1.1/DTD/svg11.dtd">
<!-- Uploaded to: SVG Repo, www.svgrepo.com, Transformed by: SVG Repo Mixer Tools -->
<svg width="800px" height="800px" viewBox="-3.84 -3.84 55.68 55.68" id="Layer_2" data-name="Layer 2" xmlns="http://www.w3.org/2000/svg" fill="#000000" transform="rotate(0)matrix(1, 0, 0, 1, 0, 0)" stroke="#000000" stroke-width="1.9200000000000004">
<g id="SVGRepo_bgCarrier" stroke-width="0" transform="translate(0,0), scale(1)">
<path transform="translate(-3.84, -3.84), scale(1.7399999999999998)" d="M16,30.173945224710874C18.498347083963104,30.310822850451856,20.88477460026292,29.440651244774507,23.16408883301275,28.408565848714915C25.624350883754037,27.29454633505342,28.58036233105381,26.373733064519147,29.759034720738285,23.94378239980766C30.937780541669913,21.51368034925784,29.673907939213606,18.65590619106006,29.182990440300532,16C28.767559739849634,13.752483927081762,28.05678647134067,11.666442478084505,27.105551251792185,9.5882069952786C26.067667751315753,7.3206644638606,25.560771161878826,4.4239048553536335,23.353370499930215,3.2635886872427218C21.141289456217745,2.1008122849173554,18.48559114127478,3.491387216221728,16,3.75059405288526C13.777838975940517,3.982329401486495,11.617179462217505,4.052971117186262,9.481812007725242,4.710167224094739C6.879105379443816,5.511195009702793,3.2917545698506414,5.532692028741678,2.1607006015469743,8.009876766907311C0.9946857255826338,10.56363134994014,3.809619307597664,13.24073096838664,4.3270046306507925,15.999999999999998C4.730206081730201,18.15031472269022,4.008988051478282,20.415510189903294,4.864426815959488,22.429126175386557C5.77042598807153,24.56175622624216,7.372984027483742,26.32461264964686,9.275235692837402,27.647633448931323C11.275142440304847,29.038573602497625,13.567597478147661,30.040680521749994,16,30.173945224710874" fill="#4F46E5" strokewidth="0"/>
</g>
<g id="SVGRepo_tracerCarrier" stroke-linecap="round" stroke-linejoin="round" stroke="#d32727" stroke-width="0.9600000000000002">
<defs>
<style>.cls-1{fill:none;stroke:#ffffff;stroke-linecap:round;stroke-linejoin:round;}</style>
</defs>
<path class="cls-1" d="M40.5,5.5H7.5a2,2,0,0,0-2,2v33a2,2,0,0,0,2,2h33a2,2,0,0,0,2-2V7.5A2,2,0,0,0,40.5,5.5Z"/>
<line class="cls-1" x1="13.84" y1="10.5" x2="34.16" y2="10.5"/>
<line class="cls-1" x1="24" y1="37.5" x2="24" y2="10.5"/>
</g>
<g id="SVGRepo_iconCarrier">
<defs>
<style>.cls-1{fill:none;stroke:#ffffff;stroke-linecap:round;stroke-linejoin:round;}</style>
</defs>
<path class="cls-1" d="M40.5,5.5H7.5a2,2,0,0,0-2,2v33a2,2,0,0,0,2,2h33a2,2,0,0,0,2-2V7.5A2,2,0,0,0,40.5,5.5Z"/>
<line class="cls-1" x1="13.84" y1="10.5" x2="34.16" y2="10.5"/>
<line class="cls-1" x1="24" y1="37.5" x2="24" y2="10.5"/>
</g>
</svg>